<svg focusable="false" aria-hidden="true" xmlns="http://www.w3.org/2000/svg" viewBox="0 0 730.45 1241.85">
    <defs>
        <linearGradient id="sq6-iuosappi" x1="358.23" y1="812.36" x2="491.52" y2="-59.97" gradientTransform="translate(-8.36 1252.01) scale(1 -1)" gradientUnits="userSpaceOnUse">
            <stop offset="0" stop-color="#CEFF00"></stop>
            <stop offset="1" stop-color="#151515"></stop>
        </linearGradient>

        <linearGradient id="sq6-qudiodkb" x1="358.23" y1="812.36" x2="491.52" y2="-59.97" gradientTransform="translate(-8.36 1252.01) scale(1 -1)" gradientUnits="userSpaceOnUse">
            <stop offset="0" stop-color="#C8F700"></stop>
            <stop offset="1" stop-color="#EFEAE6"></stop>
        </linearGradient>

        <mask id="sq6-tuqpiuqn" maskUnits="userSpaceOnUse">
            <path class="mask mask-0" data-duration="0.8" fill="none" stroke-miterlimit="10" pathLength="100" stroke-width="164" stroke="#fff" d="M401,1170.89c23.35-13.53,133.89-80.81,158.64-210.43,5.9-30.91,27.8-145.62-48.57-207.97-52.58-42.93-139.65-49.51-195.35-1.54-48.51,41.78-48.71,113.56-47.51,123.95" style="stroke-dashoffset: 0; stroke-dasharray: 100px, 744.642px;"></path>
        </mask>
        <mask id="sq6-qqppuend" maskUnits="userSpaceOnUse">
            <path data-duration="0.15" class="mask mask-1" fill="none" stroke-miterlimit="10" pathLength="100" stroke-width="136" stroke="#fff" d="M264.72,844.53s1.42,133.96,180.68-41.84" style="stroke-dashoffset: 0; stroke-dasharray: 100px, 141.044px;"></path>
        </mask>
        <mask id="sq6-wudrfgal" maskUnits="userSpaceOnUse">
            <path data-duration="0.3" class="mask mask-2" fill="none" stroke-miterlimit="10" pathLength="100" stroke-width="155" stroke="#fff" d="M418.72,832.67s170.89-218.52,243.41-324.97" style="stroke-dashoffset: 0; stroke-dasharray: 100px, 306.171px;"></path>
        </mask>
        <mask id="sq6-bnciasua" maskUnits="userSpaceOnUse">
            <path class="mask mask-3" fill="none" stroke-miterlimit="10" pathLength="100" stroke="#fff" stroke-width="155" d="M688.73,516.15c-151.26,96.62-348.08,66.89-336.98,47.74,89.53-154.34,118.56-228.95,174.55-344.21" style="stroke-dashoffset: 0; stroke-dasharray: 100px, 642.061px;"></path>
        </mask>
        <mask id="sq6-bdjasigt" maskUnits="userSpaceOnUse">
            <path class="mask mask-4" fill="none" stroke-miterlimit="10" pathLength="100" stroke="#fff" stroke-width="155" d="M542.22,212.48S185.28,484.4,89.32,388.94C16.89,316.91,301.05,57.21,301.05,57.21" style="stroke-dashoffset: 0; stroke-dasharray: 100px, 824.397px;"></path>
        </mask>
    </defs>

    <g class="squiggle-6-group" fill="url(#sq6-iuosappi)">
        <path mask="url(#sq6-bdjasigt)" d="M505.13,266.05c-16.9,4.26-33.2,13.52-49.66,23.13-44.47,26.39-106.62,71.04-149.98,100.79-41.53,29.63-87.16,52.34-138.36,60.53-42.86,6.48-87.24-4.32-111.76-43.23-10.56-16.76-18.5-36.46-19.35-57.14-2.74-39.29,23.29-75.22,49.95-99.46,17.57-16.49,36.25-30.01,54.35-44.52,28.79-24.26,55.52-50.6,82.64-77.49l65.08-65.28c1.44-1.46,3.79-1.46,5.23-.04,1.24,1.23,1.41,3.11.54,4.5l-.02.05c-32.71,53.11-68.06,103.55-108.76,151.18-19.48,23.33-44.11,43.79-63.73,66.18-15.59,18.42-30.82,37.11-28.51,60.85,1.14,8.86,5.55,18.39,12.4,28.14,5.58,7.27,11.45,11.01,20.02,13.31,33.81,6.99,76.79-12.72,107.3-29.07,11.02-5.82,25.97-15.85,36.36-22.72,25.33-16.9,52.55-33.84,79.02-49.22,33.93-19.49,69.39-38.48,106.73-52.7,19.89-6.82,47.24-17.66,68.25-6.49l-17.73,38.71Z"></path>
        <path mask="url(#sq6-bnciasua)" d="M496.27,222.76c10.35-.88,20.52.48,29.37,6.2,17.88,12.16,14.97,35.37,6.92,51.56-12.41,25.82-30.59,48.2-47.98,70.25-18.84,23.88-40.85,46.88-59.46,70.75-18.57,23.57-36.37,48.28-50.08,74.83-6.5,12.64-12.43,26.27-15.02,39.98-3.99,20.21,2.45,32.91,23.51,35.93,17.01,2.56,35.35.02,52.44-3.27,25.4-5.07,50.48-13.22,74.91-21.98,28.68-11.33,55.76-26.46,85.63-36.59,12.11-3.89,25.37-7.43,38.98-5.19,6.02.93,11.5,3.33,16.11,6.8l-26.3,42.78-.07-.23c-11.87-.46-24.46,3.91-36.45,7.19-17.44,5.27-36.63,12.05-54.77,17.7-26.69,7.93-54.02,13.23-81.61,17.52-24.08,3.22-49.3,5.84-73.93.65-47.63-10.67-49.95-50.95-33.23-89.6,15.29-36.53,38.58-69.16,61.11-100.75,17.83-24.9,37.42-48.49,54.07-74.18,12.14-18.65,23.97-37.5,32.57-57.61.78-2.09,1.67-4.28,2.48-6.5l.78-46.25Z"></path>
        <path mask="url(#sq6-wudrfgal)" d="M625.38,504.56c3.35-.08,6.73.12,10.13.68,17.65,2.72,30.63,18.11,30.83,35.89.95,35.79-39.87,89.94-60.32,118.87-46.95,62.95-95.85,123.33-150.98,179.76-4.28,4.27-8.55,8.49-12.86,12.66l-47.43-56.68c47.7-42.74,90.79-91.09,132.87-139.54,16.74-20.03,42.05-48.59,57.38-69.1,7.17-9.42,14.8-19.67,21.04-30.06l19.34-52.46Z"></path>
        <path mask="url(#sq6-qqppuend)" d="M307.88,851.29s.28,1.25.86,2.78c10.63-1.17,19.15-7.47,29.26-13.73,11.04-7,22.25-15.43,33.33-24.42,9.39-7.77,24.04-20.77,33.07-28.98l47.97,55.46c-20.93,20.55-47.41,44.96-72.44,61.95-21.41,14.22-45.16,27.18-72.89,28.15-24.46,1.22-49.77-11.97-62.75-32.83-7.94-11.95-12.65-25.35-14.71-39.26l78.29-9.13Z"></path>
        <path mask="url(#sq6-tuqpiuqn)" d="M230.64,866.33c-6.6-32.08,1.66-67.63,17.21-94.62,38.91-70.1,121.21-106.16,198.66-85.19,126.32,32.1,188.25,171.68,131.1,287.66-21.55,47.52-53.89,89.09-89.87,126.35-21.85,22.42-45.06,43.16-69.33,62.38-1.6,1.25-3.9.99-5.15-.61-1.09-1.39-1.01-3.31.05-4.62,19.56-23.72,38.6-47.66,55.85-72.55,29.63-42.82,55.82-87.43,69.83-137.32,26.4-82.89-21.77-175.53-108.38-192-30.95-6.04-60.6.25-84.45,18.68-12.32,9.12-22.66,21.31-29.88,34.79-6.86,13.66-12.75,30.32-7.53,44.81l-78.11,12.25Z"></path>
    </g>
</svg>