<svg xmlns="http://www.w3.org/2000/svg" xmlns:xlink="http://www.w3.org/1999/xlink" width="500" zoomAndPan="magnify"
     viewBox="0 0 375 374.999991" height="500" preserveAspectRatio="xMidYMid meet" version="1.0">
    <defs>
        <g/>
        <clipPath id="1b8b422162">
            <path d="M 107.59375 107.59375 L 267.40625 107.59375 L 267.40625 267.40625 L 107.59375 267.40625 Z M 107.59375 107.59375 "
                  clip-rule="nonzero"/>
        </clipPath>
        <clipPath id="e231eb56e9">
            <path d="M 187.5 267.40625 C 166.167969 267.40625 146.078125 259.101562 131.003906 243.996094 C 115.898438 228.921875 107.59375 208.832031 107.59375 187.5 C 107.59375 166.167969 115.898438 146.078125 131.003906 131.003906 C 146.078125 115.898438 166.167969 107.59375 187.5 107.59375 C 208.832031 107.59375 228.921875 115.898438 243.996094 131.003906 C 259.101562 146.109375 267.40625 166.167969 267.40625 187.5 C 267.40625 208.832031 259.101562 228.921875 243.996094 243.996094 C 228.921875 259.101562 208.832031 267.40625 187.5 267.40625 Z M 187.5 112.386719 C 167.445312 112.386719 148.570312 120.210938 134.390625 134.390625 C 120.210938 148.570312 112.386719 167.445312 112.386719 187.5 C 112.386719 207.554688 120.210938 226.429688 134.390625 240.609375 C 148.570312 254.789062 167.445312 262.613281 187.5 262.613281 C 207.554688 262.613281 226.429688 254.789062 240.609375 240.609375 C 254.789062 226.429688 262.613281 207.554688 262.613281 187.5 C 262.613281 167.445312 254.789062 148.570312 240.609375 134.390625 C 226.429688 120.210938 207.554688 112.386719 187.5 112.386719 Z M 187.5 112.386719 "
                  clip-rule="nonzero"/>
        </clipPath>
        <clipPath id="7ac14ff5d9">
            <path d="M 0.59375 0.59375 L 160.40625 0.59375 L 160.40625 160.40625 L 0.59375 160.40625 Z M 0.59375 0.59375 "
                  clip-rule="nonzero"/>
        </clipPath>
        <clipPath id="620c85ff75">
            <path d="M 80.5 160.40625 C 59.167969 160.40625 39.078125 152.101562 24.003906 136.996094 C 8.898438 121.921875 0.59375 101.832031 0.59375 80.5 C 0.59375 59.167969 8.898438 39.078125 24.003906 24.003906 C 39.078125 8.898438 59.167969 0.59375 80.5 0.59375 C 101.832031 0.59375 121.921875 8.898438 136.996094 24.003906 C 152.101562 39.109375 160.40625 59.167969 160.40625 80.5 C 160.40625 101.832031 152.101562 121.921875 136.996094 136.996094 C 121.921875 152.101562 101.832031 160.40625 80.5 160.40625 Z M 80.5 5.386719 C 60.445312 5.386719 41.570312 13.210938 27.390625 27.390625 C 13.210938 41.570312 5.386719 60.445312 5.386719 80.5 C 5.386719 100.554688 13.210938 119.429688 27.390625 133.609375 C 41.570312 147.789062 60.445312 155.613281 80.5 155.613281 C 100.554688 155.613281 119.429688 147.789062 133.609375 133.609375 C 147.789062 119.429688 155.613281 100.554688 155.613281 80.5 C 155.613281 60.445312 147.789062 41.570312 133.609375 27.390625 C 119.429688 13.210938 100.554688 5.386719 80.5 5.386719 Z M 80.5 5.386719 "
                  clip-rule="nonzero"/>
        </clipPath>
        <clipPath id="a88b4ced2b">
            <rect x="0" width="161" y="0" height="161"/>
        </clipPath>
        <clipPath id="5d54634ef8">
            <rect x="0" width="47" y="0" height="68"/>
        </clipPath>
        <clipPath id="d571b276d1">
            <rect x="0" width="42" y="0" height="69"/>
        </clipPath>
    </defs>
    <g clip-path="url(#1b8b422162)">
        <g clip-path="url(#e231eb56e9)">
            <g transform="matrix(1, 0, 0, 1, 107, 107)">
                <g clip-path="url(#a88b4ced2b)">
                    <g clip-path="url(#7ac14ff5d9)">
                        <g clip-path="url(#620c85ff75)">
                            <path fill="currentColor"
                                  d="M 0.59375 0.59375 L 160.40625 0.59375 L 160.40625 160.40625 L 0.59375 160.40625 Z M 0.59375 0.59375 "
                                  fill-opacity="1" fill-rule="nonzero"/>
                        </g>
                    </g>
                </g>
            </g>
        </g>
    </g>
    <g transform="matrix(1, 0, 0, 1, 133, 153)">
        <g clip-path="url(#5d54634ef8)">
            <g fill="currentColor" fill-opacity="1">
                <g transform="translate(2.731878, 52.582053)">
                    <g>
                        <path d="M 36.140625 -39.859375 L 20.125 0.109375 L 15.953125 0.109375 L -0.0625 -39.859375 L 6.140625 -39.859375 L 18.046875 -9.921875 L 30.046875 -39.859375 Z M 36.140625 -39.859375 "/>
                    </g>
                </g>
            </g>
        </g>
    </g>
    <g transform="matrix(1, 0, 0, 1, 203, 153)">
        <g clip-path="url(#d571b276d1)">
            <g fill="currentColor" fill-opacity="1">
                <g transform="translate(0.602491, 52.759343)">
                    <g>
                        <path d="M 19.21875 -20.015625 C 20.832031 -20.015625 22.164062 -20.351562 23.21875 -21.03125 C 24.28125 -21.707031 25.070312 -22.570312 25.59375 -23.625 C 26.125 -24.675781 26.390625 -25.765625 26.390625 -26.890625 C 26.390625 -28.015625 26.125 -29.140625 25.59375 -30.265625 C 25.070312 -31.398438 24.28125 -32.34375 23.21875 -33.09375 C 22.164062 -33.84375 20.832031 -34.21875 19.21875 -34.21875 L 10.484375 -34.21875 L 10.484375 0 L 4.84375 0 L 4.84375 -39.96875 L 19.21875 -39.96875 C 21.363281 -39.96875 23.242188 -39.582031 24.859375 -38.8125 C 26.472656 -38.039062 27.816406 -37.023438 28.890625 -35.765625 C 29.960938 -34.503906 30.757812 -33.101562 31.28125 -31.5625 C 31.8125 -30.03125 32.078125 -28.472656 32.078125 -26.890625 C 32.078125 -25.046875 31.703125 -23.269531 30.953125 -21.5625 C 30.203125 -19.851562 29.0625 -18.40625 27.53125 -17.21875 C 26.007812 -16.039062 24.125 -15.242188 21.875 -14.828125 L 34.328125 0 L 26.953125 0 L 12.578125 -17.3125 L 12.578125 -20.015625 Z M 19.21875 -20.015625 "/>
                    </g>
                </g>
            </g>
        </g>
    </g>
    <path stroke-linecap="butt" transform="matrix(0, -0.75, 0.75, 0, 184.874128, 219.451157)" fill="none"
          stroke-linejoin="miter" d="M 0.00258405 3.501162 L 85.205715 3.501162 " stroke="currentColor" stroke-width="7"
          stroke-opacity="1" stroke-miterlimit="4" />
</svg>