<svg xmlns="http://www.w3.org/2000/svg" xmlns:xlink="http://www.w3.org/1999/xlink" width="500" zoomAndPan="magnify" viewBox="0 0 375 374.999991" height="500" preserveAspectRatio="xMidYMid meet" version="1.0"><defs><clipPath id="35e83d6a75"><path d="M 109.101562 108.550781 L 274.324219 108.550781 L 274.324219 252.910156 L 109.101562 252.910156 Z M 109.101562 108.550781 " clip-rule="nonzero"/></clipPath><clipPath id="5b2c9afbae"><path d="M 191.832031 252.910156 L 109.339844 108.550781 L 274.324219 108.550781 Z M 191.832031 252.910156 " clip-rule="nonzero"/></clipPath><clipPath id="87654f5df1"><path d="M 0.199219 0.550781 L 165.324219 0.550781 L 165.324219 144.910156 L 0.199219 144.910156 Z M 0.199219 0.550781 " clip-rule="nonzero"/></clipPath><clipPath id="8d61fc1813"><path d="M 82.832031 144.910156 L 0.339844 0.550781 L 165.324219 0.550781 Z M 82.832031 144.910156 " clip-rule="nonzero"/></clipPath><clipPath id="b7f2eea3de"><rect x="0" width="166" y="0" height="145"/></clipPath><clipPath id="76676d0bcc"><path d="M 109.101562 60.535156 L 274.324219 60.535156 L 274.324219 204.894531 L 109.101562 204.894531 Z M 109.101562 60.535156 " clip-rule="nonzero"/></clipPath><clipPath id="d4710091c5"><path d="M 191.832031 204.894531 L 109.339844 60.535156 L 274.324219 60.535156 Z M 191.832031 204.894531 " clip-rule="nonzero"/></clipPath><clipPath id="9c57d64871"><path d="M 0.199219 0.535156 L 165.324219 0.535156 L 165.324219 144.894531 L 0.199219 144.894531 Z M 0.199219 0.535156 " clip-rule="nonzero"/></clipPath><clipPath id="5c113c99de"><path d="M 82.832031 144.894531 L 0.339844 0.535156 L 165.324219 0.535156 Z M 82.832031 144.894531 " clip-rule="nonzero"/></clipPath><clipPath id="0c55a4aada"><rect x="0" width="166" y="0" height="145"/></clipPath><clipPath id="9f736191ca"><path d="M 150 108 L 317 108 L 317 253 L 150 253 Z M 150 108 " clip-rule="nonzero"/></clipPath><clipPath id="319cb8b337"><path d="M 109.351562 180.957031 L 190.941406 37.285156 L 316.472656 108.570312 L 234.882812 252.246094 Z M 109.351562 180.957031 " clip-rule="nonzero"/></clipPath><clipPath id="1eff95d7a7"><path d="M 150.085938 109.226562 L 316.351562 108.78125 L 234.882812 252.246094 Z M 150.085938 109.226562 " clip-rule="nonzero"/></clipPath><clipPath id="0d129e1116"><path d="M 0 0.71875 L 166.558594 0.71875 L 166.558594 144.480469 L 0 144.480469 Z M 0 0.71875 " clip-rule="nonzero"/></clipPath><clipPath id="6b07996769"><path d="M -40.648438 72.957031 L 40.941406 -70.714844 L 166.472656 0.570312 L 84.882812 144.246094 Z M -40.648438 72.957031 " clip-rule="nonzero"/></clipPath><clipPath id="76f6d03071"><path d="M 0.0859375 1.226562 L 166.351562 0.78125 L 84.882812 144.246094 Z M 0.0859375 1.226562 " clip-rule="nonzero"/></clipPath><clipPath id="61f46e1657"><rect x="0" width="167" y="0" height="145"/></clipPath><clipPath id="4521541579"><path d="M 191 132 L 359 132 L 359 276 L 191 276 Z M 191 132 " clip-rule="nonzero"/></clipPath><clipPath id="733fb01a0a"><path d="M 151.101562 204.667969 L 232.695312 60.996094 L 358.226562 132.28125 L 276.632812 275.957031 Z M 151.101562 204.667969 " clip-rule="nonzero"/></clipPath><clipPath id="34dcf008b7"><path d="M 191.839844 132.9375 L 358.105469 132.492188 L 276.632812 275.957031 Z M 191.839844 132.9375 " clip-rule="nonzero"/></clipPath><clipPath id="8d61692dab"><path d="M 0.761719 0.480469 L 167.320312 0.480469 L 167.320312 144 L 0.761719 144 Z M 0.761719 0.480469 " clip-rule="nonzero"/></clipPath><clipPath id="a53bc7d9a0"><path d="M -39.898438 72.667969 L 41.695312 -71.003906 L 167.226562 0.28125 L 85.632812 143.957031 Z M -39.898438 72.667969 " clip-rule="nonzero"/></clipPath><clipPath id="b6897f9d88"><path d="M 0.839844 0.9375 L 167.105469 0.492188 L 85.632812 143.957031 Z M 0.839844 0.9375 " clip-rule="nonzero"/></clipPath><clipPath id="3d5aa9b828"><rect x="0" width="168" y="0" height="144"/></clipPath><clipPath id="5a55b96f6e"><path d="M 182 91 L 279 91 L 279 233 L 182 233 Z M 182 91 " clip-rule="nonzero"/></clipPath><clipPath id="210d656ee2"><path d="M 258.054688 91.808594 L 278.523438 103.824219 L 203.242188 232.058594 L 182.769531 220.039062 Z M 258.054688 91.808594 " clip-rule="nonzero"/></clipPath><clipPath id="74621c7557"><path d="M 0.640625 0.679688 L 96.640625 0.679688 L 96.640625 141.078125 L 0.640625 141.078125 Z M 0.640625 0.679688 " clip-rule="nonzero"/></clipPath><clipPath id="e2a40b2571"><path d="M 76.054688 0.808594 L 96.523438 12.824219 L 21.242188 141.058594 L 0.769531 129.039062 Z M 76.054688 0.808594 " clip-rule="nonzero"/></clipPath><clipPath id="ad4035480c"><rect x="0" width="97" y="0" height="142"/></clipPath><clipPath id="7a8d7730ee"><path d="M 247.679688 90.160156 L 278.523438 90.160156 L 278.523438 106.910156 L 247.679688 106.910156 Z M 247.679688 90.160156 " clip-rule="nonzero"/></clipPath><clipPath id="f002defe2f"><path d="M 0.679688 0.160156 L 31.523438 0.160156 L 31.523438 16.910156 L 0.679688 16.910156 Z M 0.679688 0.160156 " clip-rule="nonzero"/></clipPath><clipPath id="6b75a20482"><rect x="0" width="32" y="0" height="17"/></clipPath><clipPath id="b6a0e41eab"><path d="M 260 91 L 323 91 L 323 156 L 260 156 Z M 260 91 " clip-rule="nonzero"/></clipPath><clipPath id="05a97fa8d1"><path d="M 284.519531 91.058594 L 322.886719 112.085938 L 298.816406 155.996094 L 260.449219 134.964844 Z M 284.519531 91.058594 " clip-rule="nonzero"/></clipPath><clipPath id="4c3414384f"><path d="M 0.398438 0 L 63 0 L 63 65 L 0.398438 65 Z M 0.398438 0 " clip-rule="nonzero"/></clipPath><clipPath id="cb5b581e69"><path d="M 24.519531 0.0585938 L 62.886719 21.085938 L 38.816406 64.996094 L 0.449219 43.964844 Z M 24.519531 0.0585938 " clip-rule="nonzero"/></clipPath><clipPath id="3b7d6cfd11"><rect x="0" width="63" y="0" height="65"/></clipPath></defs><g clip-path="url(#35e83d6a75)"><g clip-path="url(#5b2c9afbae)"><g transform="matrix(1, 0, 0, 1, 109, 108)"><g clip-path="url(#b7f2eea3de)"><g clip-path="url(#87654f5df1)"><g clip-path="url(#8d61fc1813)"><path fill="#000000" d="M 165.324219 144.910156 L 0.101562 144.910156 L 0.101562 0.550781 L 165.324219 0.550781 Z M 165.324219 144.910156 " fill-opacity="1" fill-rule="nonzero"/></g></g></g></g></g></g><g clip-path="url(#9f736191ca)"><g clip-path="url(#319cb8b337)"><g clip-path="url(#1eff95d7a7)"><g transform="matrix(1, 0, 0, 1, 150, 108)"><g clip-path="url(#61f46e1657)"><g clip-path="url(#0d129e1116)"><g clip-path="url(#6b07996769)"><g clip-path="url(#76f6d03071)"><path fill="#000000" d="M -40.648438 72.957031 L 40.941406 -70.714844 L 166.472656 0.570312 L 84.882812 144.246094 Z M -40.648438 72.957031 " fill-opacity="1" fill-rule="nonzero"/></g></g></g></g></g></g></g></g><g clip-path="url(#5a55b96f6e)"><g clip-path="url(#210d656ee2)"><g transform="matrix(1, 0, 0, 1, 182, 91)"><g clip-path="url(#ad4035480c)"><g clip-path="url(#74621c7557)"><g clip-path="url(#e2a40b2571)"><path fill="#000000" d="M 76.054688 0.808594 L 96.523438 12.824219 L 21.226562 141.082031 L 0.753906 129.066406 Z M 76.054688 0.808594 " fill-opacity="1" fill-rule="nonzero"/></g></g></g></g></g></g></svg>