<svg class="squiggle squiggle-5" focusable="false" aria-hidden="true" xmlns="http://www.w3.org/2000/svg" viewBox="0 0 981.52 707.46">
    <defs>
        <mask id="sq2-uyerhecf" maskUnits="userSpaceOnUse">
            <path fill="none" stroke="#fff" stroke-miterlimit="10" stroke-width="43" d="M9.07 46.38s129.81-60.44 145.32 7.09-19.49 127.6-19.49 127.6l-31.01 98.36" class="mask mask-0" pathLength="100"></path>
        </mask>
        <mask id="sq2-iapjyphp" maskUnits="userSpaceOnUse">
            <path fill="none" stroke="#fff" stroke-miterlimit="10" stroke-width="56" d="M79.96 293.67c57.23-64.75 113.02-118.64 151.52-142.74 13.96-8.74 60.57-37.17 126.71-53.17 22.2-5.37 55.67-7.04 69.11-2.66 24 7.83 38.85 28.36-19.49 54.05-51.39 22.63-88.61 47.95-130.25 76.2-29.97 20.33-100.49 69.48-118.74 146.2-7.72 32.45-1.43 50.28 1.77 57.6 11.7 26.78 39.04 38.15 63.8 48.73 16.05 6.87 188.78 24.48 224.07 25.47" class="mask mask-1" pathLength="100"></path>
        </mask>
        <mask id="sq2-kwgecapj" maskUnits="userSpaceOnUse">
            <path fill="none" stroke="#fff" stroke-miterlimit="10" stroke-width="73" d="M427.71 495.76c59.86-7.28 103.63-27.25 128.93-41.2 39.04-21.52 63.88-45.13 74.43-55.82 28.28-28.65 50.95-50.72 55.82-86.39 1.01-7.4 7.86-57.54-25.25-89.05-6.15-5.85-25.41-22.23-71.77-23.92-64-2.34-157.32 24.1-216.65 103.67-70.53 94.6-51.41 183.25-47.54 200.33" class="mask mask-2" pathLength="100"></path>
        </mask>
        <mask id="sq2-jqumqwld" maskUnits="userSpaceOnUse">
            <path fill="none" stroke="#fff" stroke-miterlimit="10" stroke-width="67" d="M319.2 483.22c0 35.44 59.71 198.71 332.04 190.44 179.04-5.44 289.82-146.39 303.63-164.53" class="mask mask-3" pathLength="100"></path>
        </mask>
        <linearGradient id="sq2-nugsziwd" x1="15.807" x2="680.495" y1="-19.352" y2="626.42" gradientUnits="userSpaceOnUse">
            <stop stop-color="#CEFF00"></stop>
            <stop offset="1" stop-color="#151515"></stop>
        </linearGradient>
        <linearGradient id="sq2-kfibslsae" x1="235.07907048" x2="569.83981987" y1="340.90337525" y2="626.42" gradientUnits="userSpaceOnUse">
            <stop stop-color="#CEFF00"></stop>
            <stop offset="1" stop-color="#151515"></stop>
        </linearGradient>
    </defs>
    <g class="squiggle-2-group" fill="url(#sq2-nugsziwd)" transform="scale(-1, 1) translate(-981.52, 0)">
        <path d="M127.17 269.24c-3.26 1.19-6.8 1.83-10.58 1.57-11.13-.24-21.57-10.4-22.61-21.24-1.2-8.58 1.21-15.57 3.39-23.1 2.81-8.81 5.8-16.57 8.73-24.41 13.65-37.76 48.75-117.02 29.57-153.04-17.55-29.26-76.51-14.09-104.35-7.48a2.85 2.85 0 0 1-3.46-2.03c-.34-1.31.32-2.65 1.48-3.23h.02C77.18 11.77 152.54-9.36 169.37 61.9c7.31 35.39-.8 71.51-9.1 105.51-.89 3.41-1.81 6.8-2.75 10.19l-30.35 91.63Z" mask="url(#sq2-uyerhecf)"></path>
        <path d="M471.79 106.98c-6.92-44.9-67.99-43.73-101.8-38.86-80.53 12.54-153.61 54.45-212.48 109.52v-.03.03c-5.16 4.82-10.21 9.72-15.13 14.73-11.34 11-21.7 24.93-33 35.5l17.78 41.38c4.54-1.65 8.53-4.34 11.9-7.06 7.97-6.59 13.69-12.6 20.2-19.57 60.87-65.66 148.09-122.14 239.2-126.23l11.72.38c-4.26 2.73-8.84 5.17-13.26 7.49-89.95 45.46-246.29 153.53-256.02 261.72-4.39 63.73 52.94 95.79 106.8 109.46 15.29 3.92 30.92 7 46.75 9.23 21.08 2.98 42.54 4.46 64.09 4.47 26.2.01 52.53-2.16 78.5-6.49l-2.75-17.34c-26.56 5-53.77 7.34-80.87 6.69-21.19-.5-42.31-2.83-62.99-7.13-12.39-2.58-24.63-5.86-36.63-9.88-27.67-9.19-59.16-23.07-74.75-47.95-30.64-51.24 32.92-115.43 69.47-147.54 48.25-41.72 103.51-75.83 160.29-105.05 18.77-9.45 43.53-21.15 55.69-39.81 5.12-7.86 8.01-16.95 7.28-27.64Z" mask="url(#sq2-iapjyphp)"></path>
        <path d="M433.74 485.39c3.64-.69 7.82-1.53 11.44-2.31 76.59-17.14 154.42-55.44 198.46-122.06 15.36-23.99 27.53-53.23 23.6-80.96-5.62-42-48.86-60.14-87.33-58.73-58.69 1.39-115.25 37.8-157.96 76.09-53.51 48.58-85.44 127.45-67.32 199.2l-63.91-9.3c-1.83-11.74-2.97-26.21-2.79-38.37.09-94.66 61.86-176.85 138.98-225.67 30.35-19.34 62.23-36.22 97.54-44.94 64.83-17.45 150-1.76 176.76 67.84 23.22 64.73-20.09 131.07-67.96 171.47-55.57 44.53-125.05 73.1-196.75 85.07l-2.76-17.33Z" mask="url(#sq2-kwgecapj)"></path>
        <path d="M946.32 522.14c-21.22 25.67-44.89 49.54-70.77 71.08-52.49 43.76-113.31 77.41-180.05 94.42-84.69 21.57-177.83 15.52-258.32-19.18-69.35-30.14-124.37-92.35-142.71-165.08 21.08 2.98 42.07 4.42 63.62 4.43 22.41 62.67 80.94 109.31 144.35 128.05 59.57 18.94 122.96 23.95 184.78 13.23 62.77-10.69 123.17-36.98 176.75-71.59 27.34-17.64 53.46-37.58 78.32-59.28a2.82 2.82 0 0 1 3.98.27c.93 1.06.92 2.61.05 3.65Z" mask="url(#sq2-jqumqwld)"></path>
    </g>
</svg>