<svg xmlns="http://www.w3.org/2000/svg" width="28" height="28" fill="none" viewBox="0 0 28 28">
    <path fill="currentColor" fill-rule="evenodd"
          d="M14.875 6.125a.875.875 0 0 0-1.75 0v1.75a.875.875 0 0 0 1.75 0v-1.75ZM9.05 7.813A.875.875 0 0 0 7.814 9.05l1.237 1.237a.875.875 0 0 0 1.237-1.237L9.05 7.813ZM20.187 9.05a.875.875 0 0 0-1.237-1.237L17.713 9.05a.875.875 0 0 0 1.237 1.237l1.237-1.237ZM14 9.625a4.375 4.375 0 1 0 0 8.75 4.375 4.375 0 0 0 0-8.75Zm-7.875 3.5a.875.875 0 0 0 0 1.75h1.75a.875.875 0 0 0 0-1.75h-1.75Zm14 0a.875.875 0 1 0 0 1.75h1.75a.875.875 0 1 0 0-1.75h-1.75Zm-9.838 5.825a.877.877 0 0 0 .011-1.248.873.873 0 0 0-1.248.01L7.813 18.95a.874.874 0 1 0 1.237 1.237l1.237-1.237Zm8.663-1.237a.875.875 0 0 0-1.237 1.237l1.237 1.237a.875.875 0 0 0 1.237-1.237l-1.237-1.237Zm-4.075 2.412a.875.875 0 1 0-1.75 0v1.75a.875.875 0 1 0 1.75 0v-1.75Z"
          clip-rule="evenodd"></path>
</svg>