<svg class="squiggle squiggle-3" xmlns="http://www.w3.org/2000/svg" viewBox="0 0 935.24 742.33">
    <defs>
        <mask id="sq3-jksnjaos" maskUnits="userSpaceOnUse">
            <path class="mask mask-0" data-duration="0.75" pathLength="100" stroke-width="86" stroke="#fff" stroke-miterlimit="10" fill="none" d="M846.13,60.71c62.45,137.85,47,211,36,245-7.96,24.6-16.65,32.07-20,35-40.74,35.54-157.53,19.08-311-82C343.13,121.71,198.09,25.37,177.13,45.71c-20.87,20.25,63.24,121.2,76.36,139.36,43.08,59.61,83.81,86.39,158.08,151.14,36.78,32.07,75.45,92.65,138.92,153.49" style="stroke-dashoffset: 0; stroke-dasharray: 100px, 1556.77px;"></path>
        </mask>
        <mask id="sq3-hdksanjd" maskUnits="userSpaceOnUse">
            <path class="mask mask-1" data-duration="0.1" pathLength="100" stroke-width="83" stroke="#fff" stroke-miterlimit="10" fill="none" d="M539.7,502.4c-155-85-248.39-154.95-408.71-250.02" style="stroke-dashoffset: 0; stroke-dasharray: 100px, 379.298px;"></path>
        </mask>
        <mask id="sq3-ahdnmiod" maskUnits="userSpaceOnUse">
            <path class="mask mask-2" data-duration="0.1" pathLength="100" stroke-width="98" stroke="#fff" stroke-miterlimit="10" fill="none" d="M124.13,252.71c124,153.07,245.54,273.28,370.54,426.61" style="stroke-dashoffset: 0; stroke-dasharray: 100px, 465.229px;"></path>
        </mask>
        <mask id="sq3-ndlpspad" maskUnits="userSpaceOnUse">
            <path class="mask mask-3" data-duration="0.1" pathLength="100" stroke-width="105" stroke="#fff" stroke-miterlimit="10" fill="none" d="M482.16,671.94c-72.58-34.38-185.96-90.54-283.99-153.53" style="stroke-dashoffset: 0; stroke-dasharray: 100px, 223.148px;"></path>
        </mask>
        <mask id="sq3-piljiopa" maskUnits="userSpaceOnUse">
            <path class="mask mask-4" data-duration="0.1" pathLength="100" stroke-width="98" stroke="#fff" stroke-miterlimit="10" fill="none" d="M198.69,515.55c34.78,75.76,76.07,132.35,119.4,204.69" style="stroke-dashoffset: 0; stroke-dasharray: 100px, 137.246px;"></path>
        </mask>
        <mask id="sq3-qblhjjha" maskUnits="userSpaceOnUse">
            <path class="mask mask-5" data-duration="0.3" pathLength="100" stroke-width="61" stroke="#fff" stroke-miterlimit="10" fill="none" d="M330.13,708.71c-87.52-55.54-187.16-104.26-319.86-151.71" style="stroke-dashoffset: 0; stroke-dasharray: 100px, 254.865px;"></path>
        </mask>

        <linearGradient id="sq3-nshsoawo" x1="1044.57" y1="829.24" x2="-1.62" y2="226.08" gradientTransform="translate(-8.36 766.48) scale(1 -1)" gradientUnits="userSpaceOnUse">
            <stop offset="0" stop-color="#151515"></stop>
            <stop offset="1" stop-color="#CEFF00"></stop>
        </linearGradient>

        <linearGradient id="sq3-bsaqoasn" x1="1044.57" y1="829.24" x2="-1.62" y2="226.08" gradientTransform="translate(-8.36 766.48) scale(1 -1)" gradientUnits="userSpaceOnUse">
            <stop offset="0" stop-color="#EFEAE6"></stop>
            <stop offset="1" stop-color="#C8F700"></stop>
        </linearGradient>
    </defs>

    <g class="squiggle-3-group" fill="url(#sq3-nshsoawo)">
        <path mask="url(#sq3-jksnjaos)" d="M526.4,489.7c2.98-3.9,4.76-8.75,4.73-14.18-.1-9.03-3.64-15.02-7.75-21.71-5.55-8.46-11.12-14.94-16.78-21.49-16.67-18.88-34.55-36.44-52.21-54.06-51.53-50.71-115.88-112.85-164.01-165.93-22.79-28.42-44.72-57.79-64.52-88.34-10.68-16.95-20.89-33.65-28.24-51.77-2.33-6.02-4.58-12.11-4.3-17.29.06-.61.32-.66.05.49-.21,1.06-1.67,2.96-2.79,3.64-1.13.76-1.36.73-.91.83,3.51.52,7.09,1.22,11.23,2.83,21.22,8.1,41.19,20.53,60.92,32.87,27.17,17.32,53.72,36.01,80.13,54.66,80.36,56.48,160.54,114.94,246.04,164.86,29.14,16.62,60.39,32.79,91.5,45.25,33.07,13.38,66.4,24.01,102.64,27.15,25.15,1.85,53.01,0,75.01-14.12,61.75-42.88,57.91-127.89,39.69-191.96-9.19-32.62-21.68-63.63-37.67-92.97-.95-1.74-3.12-2.38-4.86-1.43-1.55.84-2.23,2.67-1.67,4.3h-.03c17.3,61.27,41.56,175.26-3.05,227.48-2.96,3.55-6.51,6.86-10.05,9.62-2.76,1.87-5.19,4.04-8.18,5.14-13.93,5.09-28.63,4.03-43.37,1.87-36.62-6.14-73.01-22.17-106.23-39.11-20.16-10.43-42.48-22.95-61.93-35.03-110-70.27-217.59-147.9-336.12-205.16-15.16-7.34-30.55-14.4-46.88-20.58-15.96-5.6-33.05-12.12-51.07-10.12-24.61,3.6-29.7,26.35-21.48,46.46,9.57,24.42,25.64,45.83,40.55,66.55,9.78,13.49,20.07,26.47,30.22,39.52,12.74,16.16,25.96,32.53,38.95,48.48l8.62,9.26c49.68,53.47,102.18,107.95,149.71,163.1,9.21,10.72,18.32,21.49,27.12,32.47l66.98,58.41Z"></path>
        <path mask="url(#sq3-hdksanjd)" d="M211.91,340.26c13.74,7.63,27.53,15.84,41.33,24.17,55.38,33.81,112.42,70.47,169.44,101.29,14.76,7.97,29.59,15.77,45.64,22.92,11.39,4.8,22.83,10.11,36.1,10.89,13.98.85,26.79-9.54,26.71-24.01-.06-5.2-1.25-9.39-3.04-13.28l-72.42-35.59c7.63,9.38,15.05,18.89,22.12,28.62,5.25,7.56,15.09,28.08,13.35,21.9.08.21.04.31.11.45,0,.08-.03.07-.06.05-.1-.27-.43-.84-.46-2.98-.08-7.43,5.89-14.52,13.13-16.01,1.07-.2,1.68-.32,2.58-.33.08-.04.29-.02.27-.07-.05-.06-.37-.17-.81-.34-20.28-8.51-38.93-21.84-57.91-34.18-53.25-36.01-107.07-76.98-160.59-112.89-21.04-14.09-42.5-28.02-65.01-40.46-21.49-11.64-52.75-28.2-76.47-9.81-9.3,7.09-14.47,18.36-14.92,29.64l80.93,50.01h-.02Z"></path>
        <path mask="url(#sq3-ahdnmiod)" d="M451.48,679.33c1.03-.53,2.06-1.11,3.09-1.73,13.9-8.53,21.81-25.03,21.21-41.12-1.06-24.28-13.95-44.7-25.59-64.01-31.98-50.9-73.71-94.53-115.34-137.18-39.46-40.29-79.95-79.86-116.03-122.55-7.41-9.06-14.56-17.66-19.96-27.23,2.41,9.73-1.87,22.34-11.01,29.1-4.72,3.73-12.47,6.63-18.06,5.84-1.37-.19-.82-.21-.15-.07,13.81,4.04,28.81,12.63,42.29,19.88,13.74,7.63,27.53,15.84,41.33,24.17,13.47,8.22,27.03,16.61,40.67,25.05l-117.44-136.76c-10.65-1.18-21.2.63-30.56,7.89-11.59,8.85-16.77,24.19-14.39,37.95,2.64,15.27,9.06,24.44,16.22,36.1,10.11,15.27,20.7,28.54,31.96,42.32,52.32,63.71,111.63,120.38,165.18,181.93,4.84,5.62,9.66,11.56,14.37,17.58l92.22,102.86Z"></path>
        <path mask="url(#sq3-ndlpspad)" d="M293.82,616.99c28.4,19.83,56.66,39.34,88.36,54.76,21.96,10.31,48.34,20.4,72.38,5.85,13.9-8.53,21.81-25.03,21.21-41.12-.31-7.11-1.64-13.89-3.65-20.41l-114.37-41.51c5.4,6.84,10.68,13.81,15.72,20.55,9.91,13.69,20.64,28.41,27.03,43.35.88,1.96.73,3.13.62-.06-.44-13.89,13.95-28.46,27.21-27.58-10.02-1.96-24.48-9.07-35.51-14.86-28.21-14.49-55.79-33.06-83.36-49.31-25.72-13.72-65.23-36.91-95.43-24.84-16.2,6.95-23.59,20.65-24.28,35.68l104.06,59.53Z"></path>
        <path mask="url(#sq3-piljiopa)" d="M288.98,712.78c2.46.93,5.1,1.74,7.88,1.96,17.89,2.23,32.36-14.57,27.57-31.84-3.29-11.41-10.72-17.55-16.63-26.43-18.96-27.23-38.72-54.73-52.75-84.48-1.97-4.49-3.7-8.45-4.29-12.62-.04-.16.06-.07.04-.12.02.03-.01-.13.07.11.02.29.48,1.85-.49,5.55-.13.48-.27.87-.48,1.39-1.13,3.25-3.2,6.4-5.84,8.85-1.16,1.04-2.2,1.93-3.46,2.67-4.71,2.85-7.49,2.93-8.57,3.15-1.07.12-.94.13-.49.28,1.07.32,3.51,1.06,6.17,2.15,12.8,5.29,25.79,13,38.14,21.17l-34.44-85.59c-9.51-1.22-18.81-.63-27.35,2.79-25.92,11.12-29.29,39.52-18.74,63.01,7.35,17.63,17.9,32.8,28.69,47.89,12.6,17.28,25.78,33.56,39.4,49.4,1.66,1.82,5.01,5.94,6.64,7.83"></path>
        <path mask="url(#sq3-qblhjjha)" d="M303.24,667s-86.2-45.69-87.54-46.11l2.26,2.74c-60.28-28.82-125.82-42.82-189.81-60.86-1.92-.51-3.89.65-4.37,2.58-.43,1.7.39,3.41,1.91,4.15,29.66,14.34,59.54,28.08,89.42,41.77,29.81,13.17,57.96,27.22,85.15,44.62,20.06,12.58,40.82,28.59,60.81,41.36,8.13,5.08,14.6,9.55,23.93,13.92,3.52,1.44,7.52,3.22,11.85,3.56,7.6.95,14.57-1.53,19.72-6.02l-13.34-41.71Z"></path>
    </g>
</svg>