<svg width="0" height="0" style="position:absolute" xmlns="http://www.w3.org/2000/svg"><symbol style="position:absolute" viewBox="0 0 0 0" id="sprite"/><symbol class="gsquiggle gsquiggle-2" viewBox="0 0 981.52 707.46" id="squiggle"><defs><mask id="gb" maskUnits="userSpaceOnUse"><path fill="none" stroke="#fff" stroke-miterlimit="10" stroke-width="43" d="M9.07 46.38s129.81-60.44 145.32 7.09-19.49 127.6-19.49 127.6l-31.01 98.36" class="gmask gmask-0" pathLength="100" style="stroke-dashoffset:0;stroke-dasharray:100px,299.069px"/></mask><mask id="gc" maskUnits="userSpaceOnUse"><path fill="none" stroke="#fff" stroke-miterlimit="10" stroke-width="56" d="M79.96 293.67c57.23-64.75 113.02-118.64 151.52-142.74 13.96-8.74 60.57-37.17 126.71-53.17 22.2-5.37 55.67-7.04 69.11-2.66 24 7.83 38.85 28.36-19.49 54.05-51.39 22.63-88.61 47.95-130.25 76.2-29.97 20.33-100.49 69.48-118.74 146.2-7.72 32.45-1.43 50.28 1.77 57.6 11.7 26.78 39.04 38.15 63.8 48.73 16.05 6.87 188.78 24.48 224.07 25.47" class="gmask gmask-1" pathLength="100" style="stroke-dashoffset:0;stroke-dasharray:100px,1113.56px"/></mask><mask id="gd" maskUnits="userSpaceOnUse"><path fill="none" stroke="#fff" stroke-miterlimit="10" stroke-width="73" d="M427.71 495.76c59.86-7.28 103.63-27.25 128.93-41.2 39.04-21.52 63.88-45.13 74.43-55.82 28.28-28.65 50.95-50.72 55.82-86.39 1.01-7.4 7.86-57.54-25.25-89.05-6.15-5.85-25.41-22.23-71.77-23.92-64-2.34-157.32 24.1-216.65 103.67-70.53 94.6-51.41 183.25-47.54 200.33" class="gmask gmask-2" pathLength="100" style="stroke-dashoffset:0;stroke-dasharray:100px,869.713px"/></mask><mask id="ge" maskUnits="userSpaceOnUse"><path fill="none" stroke="#fff" stroke-miterlimit="10" stroke-width="67" d="M319.2 483.22c0 35.44 59.71 198.71 332.04 190.44 179.04-5.44 289.82-146.39 303.63-164.53" class="gmask gmask-3" pathLength="100" style="stroke-dashoffset:0;stroke-dasharray:100px,674.382px"/></mask><linearGradient id="ga" x1="15.807" x2="680.495" y1="-19.352" y2="626.42" gradientUnits="userSpaceOnUse"><stop stop-color="#CEFF00"/><stop offset="1" stop-color="#151515"/></linearGradient></defs><g class="gsquiggle-2-group" fill="url(#ga)" transform="matrix(-1 0 0 1 981.52 0)"><path d="M127.17 269.24c-3.26 1.19-6.8 1.83-10.58 1.57-11.13-.24-21.57-10.4-22.61-21.24-1.2-8.58 1.21-15.57 3.39-23.1 2.81-8.81 5.8-16.57 8.73-24.41 13.65-37.76 48.75-117.02 29.57-153.04-17.55-29.26-76.51-14.09-104.35-7.48a2.85 2.85 0 0 1-3.46-2.03c-.34-1.31.32-2.65 1.48-3.23h.02C77.18 11.77 152.54-9.36 169.37 61.9c7.31 35.39-.8 71.51-9.1 105.51-.89 3.41-1.81 6.8-2.75 10.19l-30.35 91.63Z" mask="url(#gb)"/><path d="M471.79 106.98c-6.92-44.9-67.99-43.73-101.8-38.86-80.53 12.54-153.61 54.45-212.48 109.52v-.03.03c-5.16 4.82-10.21 9.72-15.13 14.73-11.34 11-21.7 24.93-33 35.5l17.78 41.38c4.54-1.65 8.53-4.34 11.9-7.06 7.97-6.59 13.69-12.6 20.2-19.57 60.87-65.66 148.09-122.14 239.2-126.23l11.72.38c-4.26 2.73-8.84 5.17-13.26 7.49-89.95 45.46-246.29 153.53-256.02 261.72-4.39 63.73 52.94 95.79 106.8 109.46 15.29 3.92 30.92 7 46.75 9.23 21.08 2.98 42.54 4.46 64.09 4.47 26.2.01 52.53-2.16 78.5-6.49l-2.75-17.34c-26.56 5-53.77 7.34-80.87 6.69-21.19-.5-42.31-2.83-62.99-7.13-12.39-2.58-24.63-5.86-36.63-9.88-27.67-9.19-59.16-23.07-74.75-47.95-30.64-51.24 32.92-115.43 69.47-147.54 48.25-41.72 103.51-75.83 160.29-105.05 18.77-9.45 43.53-21.15 55.69-39.81 5.12-7.86 8.01-16.95 7.28-27.64Z" mask="url(#gc)"/><path d="M433.74 485.39c3.64-.69 7.82-1.53 11.44-2.31 76.59-17.14 154.42-55.44 198.46-122.06 15.36-23.99 27.53-53.23 23.6-80.96-5.62-42-48.86-60.14-87.33-58.73-58.69 1.39-115.25 37.8-157.96 76.09-53.51 48.58-85.44 127.45-67.32 199.2l-63.91-9.3c-1.83-11.74-2.97-26.21-2.79-38.37.09-94.66 61.86-176.85 138.98-225.67 30.35-19.34 62.23-36.22 97.54-44.94 64.83-17.45 150-1.76 176.76 67.84 23.22 64.73-20.09 131.07-67.96 171.47-55.57 44.53-125.05 73.1-196.75 85.07l-2.76-17.33Z" mask="url(#gd)"/><path d="M946.32 522.14c-21.22 25.67-44.89 49.54-70.77 71.08-52.49 43.76-113.31 77.41-180.05 94.42-84.69 21.57-177.83 15.52-258.32-19.18-69.35-30.14-124.37-92.35-142.71-165.08 21.08 2.98 42.07 4.42 63.62 4.43 22.41 62.67 80.94 109.31 144.35 128.05 59.57 18.94 122.96 23.95 184.78 13.23 62.77-10.69 123.17-36.98 176.75-71.59 27.34-17.64 53.46-37.58 78.32-59.28a2.82 2.82 0 0 1 3.98.27c.93 1.06.92 2.61.05 3.65Z" mask="url(#ge)"/></g></symbol><symbol viewBox="0 0 1959.45 996.54" id="squiggle-1"><defs><mask id="bf" maskUnits="userSpaceOnUse"><path class="bmask bmask-0" fill="none" stroke="#fff" stroke-miterlimit="10" stroke-width="164" pathLength="100" d="M81.59 76.33c4.61 45.88 31.49 265.35 215.86 395.19 43.97 30.96 207.11 145.86 357.98 70.89 103.86-51.61 175.44-182.53 140-303.04C764.56 134.43 652.96 83.55 635.93 78.1"/></mask><mask id="be" maskUnits="userSpaceOnUse"><path data-duration=".15" pathLength="100" class="bmask bmask-1" fill="none" stroke="#fff" stroke-miterlimit="10" stroke-width="155" d="M685.66 94.05S476.12 1.9 623.53 404.81"/></mask><mask id="bd" maskUnits="userSpaceOnUse"><path data-duration=".15" pathLength="100" class="bmask bmask-2" stroke="#fff" stroke-miterlimit="10" d="M595.66 342.16s219.81 419.97 334.45 607.85" stroke-width="155"/></mask><mask id="bc" maskUnits="userSpaceOnUse"><path pathLength="100" class="bmask bmask-3" stroke="#fff" stroke-miterlimit="10" d="M898.22 985.45c-43.87-303.55 141.06-589.01 163.04-558.23 177.22 248.1 272.91 345.84 412.92 514.2" stroke-width="155"/></mask><mask id="bb" maskUnits="userSpaceOnUse"><path data-duration="1" pathLength="100" class="bmask bmask-4" stroke="#fff" stroke-miterlimit="10" d="M1474.17 971.28s-171.9-747.21 44.3-829.37c163.16-62.01 367.3 563.29 367.3 563.29" stroke-width="155"/></mask><linearGradient id="ba" x1="2031.41" x2="53.12" y1="2148.11" y2="2909.85" gradientTransform="matrix(1 0 0 -1 -8.36 2957.07)" gradientUnits="userSpaceOnUse"><stop offset="0" stop-color="#151515"/><stop offset="1" stop-color="#CEFF00"/></linearGradient></defs><g class="bsquiggle-4-group" fill="url(#ba)"><path mask="url(#bb)" d="M1416.9 875.81c5.28-29.31 2.34-61.2-1.03-93.61-9.77-87.82-35.49-216.02-51.26-304.47-16.88-85.53-20.08-172.56 3.23-258.03 20.1-71.29 68.18-132.76 146.03-143.54 33.53-4.64 69.79-3.12 102.59 10.13 63.1 23.42 100.7 89.24 119.66 147.83 13.29 38.97 21.19 77.58 31.03 115.97 17.49 61.91 39.67 122.07 62.42 183.23l55.78 147.29c1.26 3.27-.39 6.93-3.62 8.16-2.79 1.06-5.84 0-7.39-2.33l-.06-.07c-59.64-88.33-113.27-178.89-158.74-275.81-22.59-46.76-37.1-99.51-58.13-145.84-17.7-37.24-36.06-74.13-74.64-87.25-14.6-4.46-32.53-4.31-52.55-.52-15.25 3.56-25.21 10.07-34.83 21.79-34.69 47.71-34.29 128.51-30.33 187.52 1.29 21.26 6.38 51.58 9.76 72.6 8.47 51.35 15.67 105.65 20.96 157.69 6.45 66.55 11.03 135.14 6.86 203.27-3.39 35.76-5.78 85.99-37.97 110.83l-47.77-54.88Z"/><path mask="url(#bc)" d="M1490.53 892.5c-5.93 16.73-15.2 31.6-30.35 41.36-31.52 19.27-65.61-1.61-85.14-25.54-31.46-37.5-53.49-81.57-75.57-124.18-23.91-46.15-44.22-96.62-68.26-142.4-23.62-45.51-49.55-90.63-81.23-130.67-15.1-19.03-32.14-37.85-51.67-51.55-28.65-20.45-52.96-19.38-72.5 11.29-15.97 24.68-24.93 55.02-31.84 83.95-10 43.11-14.98 87.9-18.55 132.1-2.56 52.64 1.91 105.45-3.36 159.09-2.48 21.59-6.3 44.73-19.37 64.35a61.276 61.276 0 0 1-21.93 20.3l-48.07-71.08.41.05c9.07-18.15 11.14-40.83 14.48-61.82 4.08-30.87 7.04-65.5 11.02-97.73 6.46-47.13 17.46-93.42 30.21-139.4 11.96-39.76 25.64-80.87 51.07-115.54 50.16-66.63 114.5-41.87 162.89 11.38 46.09 49.54 80.5 108.77 113.8 166.1 26.21 45.29 49.14 92.42 77.39 136.43 20.48 32.04 41.49 63.73 66.75 91.28 2.7 2.69 5.49 5.62 8.37 8.44l71.45 33.79Z"/><path mask="url(#bd)" d="M960.88 895.01c-2.24 5.27-4.92 10.39-8.19 15.29-16.67 25.57-49.77 34.93-77.59 22.71-56.39-23.73-111.94-125.42-142.57-177.63-64.93-117.43-124.49-236.09-173.49-361.67-3.63-9.66-7.19-19.3-10.65-28.94l121.65-33.91c32.94 104.37 77.86 205.5 123.64 305.15 19.4 40.18 46.03 99.68 67.16 138 9.62 17.8 20.2 36.89 31.98 53.93L960.88 895Z"/><path mask="url(#be)" d="M644.73 156.49s-2.15-.45-4.94-.62c-5.66 17.37-1.86 35.08.77 55.22 3.12 22.11 8.34 45.5 14.53 69.09 5.49 20.1 15.41 52.05 21.82 71.9L556.78 387.7c-17.25-47.06-36.59-105.48-45.42-156.4-7.07-43.34-10.5-89.45 7.52-133.31 15.33-38.94 53.69-69.05 95.3-74.56 24.2-3.95 48.38-1.83 71.48 4.75l-40.93 128.31Z"/><path mask="url(#bf)" d="M675.74 25.65c54.59 12.32 104.11 50.22 135.18 93.44 81.71 109.96 79.89 263.48-7.3 369.28-138.96 174.04-399.87 172.14-540.17 1.47-58.79-67.03-100.74-146.64-133.4-228.91-19.51-49.81-35.45-100.55-48.28-151.87-.82-3.38 1.2-6.77 4.58-7.59 2.93-.71 5.87.76 7.17 3.33 23.14 47.17 47.01 93.66 73.6 138.05 45.79 76.29 96.79 148.49 164.6 205.44 110.44 99.48 288.6 89.76 375.24-33.48 31.2-43.93 42.3-94.51 30.41-144.63-5.52-25.61-17.22-50.29-33.11-71.02-16.43-20.3-38.22-41.2-64.46-43.28l35.95-130.22Z"/></g></symbol><symbol class="csquiggle csquiggle-3" viewBox="0 0 935.24 742.33" id="squiggle-2"><defs><mask id="cb" maskUnits="userSpaceOnUse"><path class="cmask cmask-0" data-duration=".75" pathLength="100" stroke-width="86" stroke="#fff" stroke-miterlimit="10" fill="none" d="M846.13 60.71c62.45 137.85 47 211 36 245-7.96 24.6-16.65 32.07-20 35-40.74 35.54-157.53 19.08-311-82-208-137-353.04-233.34-374-213-20.87 20.25 63.24 121.2 76.36 139.36 43.08 59.61 83.81 86.39 158.08 151.14 36.78 32.07 75.45 92.65 138.92 153.49" style="stroke-dashoffset:0;stroke-dasharray:100px,1556.77px"/></mask><mask id="cc" maskUnits="userSpaceOnUse"><path class="cmask cmask-1" data-duration=".1" pathLength="100" stroke-width="83" stroke="#fff" stroke-miterlimit="10" fill="none" d="M539.7 502.4c-155-85-248.39-154.95-408.71-250.02" style="stroke-dashoffset:0;stroke-dasharray:100px,379.298px"/></mask><mask id="cd" maskUnits="userSpaceOnUse"><path class="cmask cmask-2" data-duration=".1" pathLength="100" stroke-width="98" stroke="#fff" stroke-miterlimit="10" fill="none" d="M124.13 252.71c124 153.07 245.54 273.28 370.54 426.61" style="stroke-dashoffset:0;stroke-dasharray:100px,465.229px"/></mask><mask id="ce" maskUnits="userSpaceOnUse"><path class="cmask cmask-3" data-duration=".1" pathLength="100" stroke-width="105" stroke="#fff" stroke-miterlimit="10" fill="none" d="M482.16 671.94c-72.58-34.38-185.96-90.54-283.99-153.53" style="stroke-dashoffset:0;stroke-dasharray:100px,223.148px"/></mask><mask id="cf" maskUnits="userSpaceOnUse"><path class="cmask cmask-4" data-duration=".1" pathLength="100" stroke-width="98" stroke="#fff" stroke-miterlimit="10" fill="none" d="M198.69 515.55c34.78 75.76 76.07 132.35 119.4 204.69" style="stroke-dashoffset:0;stroke-dasharray:100px,137.246px"/></mask><mask id="cg" maskUnits="userSpaceOnUse"><path class="cmask cmask-5" data-duration=".3" pathLength="100" stroke-width="61" stroke="#fff" stroke-miterlimit="10" fill="none" d="M330.13 708.71C242.61 653.17 142.97 604.45 10.27 557" style="stroke-dashoffset:0;stroke-dasharray:100px,254.865px"/></mask><linearGradient id="ca" x1="1044.57" y1="829.24" x2="-1.62" y2="226.08" gradientTransform="matrix(1 0 0 -1 -8.36 766.48)" gradientUnits="userSpaceOnUse"><stop offset="0" stop-color="#151515"/><stop offset="1" stop-color="#CEFF00"/></linearGradient></defs><g class="csquiggle-3-group" fill="url(#ca)"><path mask="url(#cb)" d="M526.4 489.7c2.98-3.9 4.76-8.75 4.73-14.18-.1-9.03-3.64-15.02-7.75-21.71-5.55-8.46-11.12-14.94-16.78-21.49-16.67-18.88-34.55-36.44-52.21-54.06-51.53-50.71-115.88-112.85-164.01-165.93-22.79-28.42-44.72-57.79-64.52-88.34-10.68-16.95-20.89-33.65-28.24-51.77-2.33-6.02-4.58-12.11-4.3-17.29.06-.61.32-.66.05.49-.21 1.06-1.67 2.96-2.79 3.64-1.13.76-1.36.73-.91.83 3.51.52 7.09 1.22 11.23 2.83 21.22 8.1 41.19 20.53 60.92 32.87 27.17 17.32 53.72 36.01 80.13 54.66 80.36 56.48 160.54 114.94 246.04 164.86 29.14 16.62 60.39 32.79 91.5 45.25 33.07 13.38 66.4 24.01 102.64 27.15 25.15 1.85 53.01 0 75.01-14.12 61.75-42.88 57.91-127.89 39.69-191.96-9.19-32.62-21.68-63.63-37.67-92.97a3.577 3.577 0 0 0-4.86-1.43 3.57 3.57 0 0 0-1.67 4.3h-.03c17.3 61.27 41.56 175.26-3.05 227.48-2.96 3.55-6.51 6.86-10.05 9.62-2.76 1.87-5.19 4.04-8.18 5.14-13.93 5.09-28.63 4.03-43.37 1.87-36.62-6.14-73.01-22.17-106.23-39.11-20.16-10.43-42.48-22.95-61.93-35.03-110-70.27-217.59-147.9-336.12-205.16-15.16-7.34-30.55-14.4-46.88-20.58-15.96-5.6-33.05-12.12-51.07-10.12-24.61 3.6-29.7 26.35-21.48 46.46 9.57 24.42 25.64 45.83 40.55 66.55 9.78 13.49 20.07 26.47 30.22 39.52 12.74 16.16 25.96 32.53 38.95 48.48l8.62 9.26c49.68 53.47 102.18 107.95 149.71 163.1 9.21 10.72 18.32 21.49 27.12 32.47l66.98 58.41Z"/><path mask="url(#cc)" d="M211.91 340.26c13.74 7.63 27.53 15.84 41.33 24.17 55.38 33.81 112.42 70.47 169.44 101.29 14.76 7.97 29.59 15.77 45.64 22.92 11.39 4.8 22.83 10.11 36.1 10.89 13.98.85 26.79-9.54 26.71-24.01-.06-5.2-1.25-9.39-3.04-13.28l-72.42-35.59c7.63 9.38 15.05 18.89 22.12 28.62 5.25 7.56 15.09 28.08 13.35 21.9.08.21.04.31.11.45 0 .08-.03.07-.06.05-.1-.27-.43-.84-.46-2.98-.08-7.43 5.89-14.52 13.13-16.01 1.07-.2 1.68-.32 2.58-.33.08-.04.29-.02.27-.07-.05-.06-.37-.17-.81-.34-20.28-8.51-38.93-21.84-57.91-34.18-53.25-36.01-107.07-76.98-160.59-112.89-21.04-14.09-42.5-28.02-65.01-40.46-21.49-11.64-52.75-28.2-76.47-9.81-9.3 7.09-14.47 18.36-14.92 29.64l80.93 50.01h-.02Z"/><path mask="url(#cd)" d="M451.48 679.33c1.03-.53 2.06-1.11 3.09-1.73 13.9-8.53 21.81-25.03 21.21-41.12-1.06-24.28-13.95-44.7-25.59-64.01-31.98-50.9-73.71-94.53-115.34-137.18-39.46-40.29-79.95-79.86-116.03-122.55-7.41-9.06-14.56-17.66-19.96-27.23 2.41 9.73-1.87 22.34-11.01 29.1-4.72 3.73-12.47 6.63-18.06 5.84-1.37-.19-.82-.21-.15-.07 13.81 4.04 28.81 12.63 42.29 19.88 13.74 7.63 27.53 15.84 41.33 24.17 13.47 8.22 27.03 16.61 40.67 25.05L176.49 252.72c-10.65-1.18-21.2.63-30.56 7.89-11.59 8.85-16.77 24.19-14.39 37.95 2.64 15.27 9.06 24.44 16.22 36.1 10.11 15.27 20.7 28.54 31.96 42.32 52.32 63.71 111.63 120.38 165.18 181.93 4.84 5.62 9.66 11.56 14.37 17.58l92.22 102.86Z"/><path mask="url(#ce)" d="M293.82 616.99c28.4 19.83 56.66 39.34 88.36 54.76 21.96 10.31 48.34 20.4 72.38 5.85 13.9-8.53 21.81-25.03 21.21-41.12-.31-7.11-1.64-13.89-3.65-20.41l-114.37-41.51c5.4 6.84 10.68 13.81 15.72 20.55 9.91 13.69 20.64 28.41 27.03 43.35.88 1.96.73 3.13.62-.06-.44-13.89 13.95-28.46 27.21-27.58-10.02-1.96-24.48-9.07-35.51-14.86-28.21-14.49-55.79-33.06-83.36-49.31-25.72-13.72-65.23-36.91-95.43-24.84-16.2 6.95-23.59 20.65-24.28 35.68l104.06 59.53Z"/><path mask="url(#cf)" d="M288.98 712.78c2.46.93 5.1 1.74 7.88 1.96 17.89 2.23 32.36-14.57 27.57-31.84-3.29-11.41-10.72-17.55-16.63-26.43-18.96-27.23-38.72-54.73-52.75-84.48-1.97-4.49-3.7-8.45-4.29-12.62-.04-.16.06-.07.04-.12.02.03-.01-.13.07.11.02.29.48 1.85-.49 5.55-.13.48-.27.87-.48 1.39-1.13 3.25-3.2 6.4-5.84 8.85-1.16 1.04-2.2 1.93-3.46 2.67-4.71 2.85-7.49 2.93-8.57 3.15-1.07.12-.94.13-.49.28 1.07.32 3.51 1.06 6.17 2.15 12.8 5.29 25.79 13 38.14 21.17l-34.44-85.59c-9.51-1.22-18.81-.63-27.35 2.79-25.92 11.12-29.29 39.52-18.74 63.01 7.35 17.63 17.9 32.8 28.69 47.89 12.6 17.28 25.78 33.56 39.4 49.4 1.66 1.82 5.01 5.94 6.64 7.83"/><path mask="url(#cg)" d="M303.24 667s-86.2-45.69-87.54-46.11l2.26 2.74c-60.28-28.82-125.82-42.82-189.81-60.86-1.92-.51-3.89.65-4.37 2.58-.43 1.7.39 3.41 1.91 4.15 29.66 14.34 59.54 28.08 89.42 41.77 29.81 13.17 57.96 27.22 85.15 44.62 20.06 12.58 40.82 28.59 60.81 41.36 8.13 5.08 14.6 9.55 23.93 13.92 3.52 1.44 7.52 3.22 11.85 3.56 7.6.95 14.57-1.53 19.72-6.02L303.23 667Z"/></g></symbol><symbol viewBox="0 0 730.45 1241.85" id="squiggle-3"><defs><mask id="df" maskUnits="userSpaceOnUse"><path class="dmask dmask-0" data-duration=".8" fill="none" stroke-miterlimit="10" pathLength="100" stroke-width="164" stroke="#fff" d="M401 1170.89c23.35-13.53 133.89-80.81 158.64-210.43 5.9-30.91 27.8-145.62-48.57-207.97-52.58-42.93-139.65-49.51-195.35-1.54-48.51 41.78-48.71 113.56-47.51 123.95" style="stroke-dashoffset:0;stroke-dasharray:100px,744.642px"/></mask><mask id="de" maskUnits="userSpaceOnUse"><path data-duration=".15" class="dmask dmask-1" fill="none" stroke-miterlimit="10" pathLength="100" stroke-width="136" stroke="#fff" d="M264.72 844.53s1.42 133.96 180.68-41.84" style="stroke-dashoffset:0;stroke-dasharray:100px,141.044px"/></mask><mask id="dd" maskUnits="userSpaceOnUse"><path data-duration=".3" class="dmask dmask-2" fill="none" stroke-miterlimit="10" pathLength="100" stroke-width="155" stroke="#fff" d="M418.72 832.67S589.61 614.15 662.13 507.7" style="stroke-dashoffset:0;stroke-dasharray:100px,306.171px"/></mask><mask id="dc" maskUnits="userSpaceOnUse"><path class="dmask dmask-3" fill="none" stroke-miterlimit="10" pathLength="100" stroke="#fff" stroke-width="155" d="M688.73 516.15c-151.26 96.62-348.08 66.89-336.98 47.74 89.53-154.34 118.56-228.95 174.55-344.21" style="stroke-dashoffset:0;stroke-dasharray:100px,642.061px"/></mask><mask id="db" maskUnits="userSpaceOnUse"><path class="dmask dmask-4" fill="none" stroke-miterlimit="10" pathLength="100" stroke="#fff" stroke-width="155" d="M542.22 212.48S185.28 484.4 89.32 388.94C16.89 316.91 301.05 57.21 301.05 57.21" style="stroke-dashoffset:0;stroke-dasharray:100px,824.397px"/></mask><linearGradient id="da" x1="358.23" y1="812.36" x2="491.52" y2="-59.97" gradientTransform="matrix(1 0 0 -1 -8.36 1252.01)" gradientUnits="userSpaceOnUse"><stop offset="0" stop-color="#CEFF00"/><stop offset="1" stop-color="#151515"/></linearGradient></defs><g class="dsquiggle-6-group" fill="url(#da)"><path mask="url(#db)" d="M505.13 266.05c-16.9 4.26-33.2 13.52-49.66 23.13-44.47 26.39-106.62 71.04-149.98 100.79-41.53 29.63-87.16 52.34-138.36 60.53-42.86 6.48-87.24-4.32-111.76-43.23-10.56-16.76-18.5-36.46-19.35-57.14-2.74-39.29 23.29-75.22 49.95-99.46 17.57-16.49 36.25-30.01 54.35-44.52 28.79-24.26 55.52-50.6 82.64-77.49l65.08-65.28a3.706 3.706 0 0 1 5.23-.04 3.635 3.635 0 0 1 .54 4.5l-.02.05C261.08 121 225.73 171.44 185.03 219.07c-19.48 23.33-44.11 43.79-63.73 66.18-15.59 18.42-30.82 37.11-28.51 60.85 1.14 8.86 5.55 18.39 12.4 28.14 5.58 7.27 11.45 11.01 20.02 13.31 33.81 6.99 76.79-12.72 107.3-29.07 11.02-5.82 25.97-15.85 36.36-22.72 25.33-16.9 52.55-33.84 79.02-49.22 33.93-19.49 69.39-38.48 106.73-52.7 19.89-6.82 47.24-17.66 68.25-6.49l-17.73 38.71Z"/><path mask="url(#dc)" d="M496.27 222.76c10.35-.88 20.52.48 29.37 6.2 17.88 12.16 14.97 35.37 6.92 51.56-12.41 25.82-30.59 48.2-47.98 70.25-18.84 23.88-40.85 46.88-59.46 70.75-18.57 23.57-36.37 48.28-50.08 74.83-6.5 12.64-12.43 26.27-15.02 39.98-3.99 20.21 2.45 32.91 23.51 35.93 17.01 2.56 35.35.02 52.44-3.27 25.4-5.07 50.48-13.22 74.91-21.98 28.68-11.33 55.76-26.46 85.63-36.59 12.11-3.89 25.37-7.43 38.98-5.19 6.02.93 11.5 3.33 16.11 6.8l-26.3 42.78-.07-.23c-11.87-.46-24.46 3.91-36.45 7.19-17.44 5.27-36.63 12.05-54.77 17.7-26.69 7.93-54.02 13.23-81.61 17.52-24.08 3.22-49.3 5.84-73.93.65-47.63-10.67-49.95-50.95-33.23-89.6 15.29-36.53 38.58-69.16 61.11-100.75 17.83-24.9 37.42-48.49 54.07-74.18 12.14-18.65 23.97-37.5 32.57-57.61.78-2.09 1.67-4.28 2.48-6.5l.78-46.25Z"/><path mask="url(#dd)" d="M625.38 504.56c3.35-.08 6.73.12 10.13.68 17.65 2.72 30.63 18.11 30.83 35.89.95 35.79-39.87 89.94-60.32 118.87-46.95 62.95-95.85 123.33-150.98 179.76-4.28 4.27-8.55 8.49-12.86 12.66l-47.43-56.68c47.7-42.74 90.79-91.09 132.87-139.54 16.74-20.03 42.05-48.59 57.38-69.1 7.17-9.42 14.8-19.67 21.04-30.06l19.34-52.46Z"/><path mask="url(#de)" d="M307.88 851.29s.28 1.25.86 2.78c10.63-1.17 19.15-7.47 29.26-13.73 11.04-7 22.25-15.43 33.33-24.42 9.39-7.77 24.04-20.77 33.07-28.98l47.97 55.46c-20.93 20.55-47.41 44.96-72.44 61.95-21.41 14.22-45.16 27.18-72.89 28.15-24.46 1.22-49.77-11.97-62.75-32.83-7.94-11.95-12.65-25.35-14.71-39.26l78.29-9.13Z"/><path mask="url(#df)" d="M230.64 866.33c-6.6-32.08 1.66-67.63 17.21-94.62 38.91-70.1 121.21-106.16 198.66-85.19 126.32 32.1 188.25 171.68 131.1 287.66-21.55 47.52-53.89 89.09-89.87 126.35-21.85 22.42-45.06 43.16-69.33 62.38-1.6 1.25-3.9.99-5.15-.61-1.09-1.39-1.01-3.31.05-4.62 19.56-23.72 38.6-47.66 55.85-72.55 29.63-42.82 55.82-87.43 69.83-137.32 26.4-82.89-21.77-175.53-108.38-192-30.95-6.04-60.6.25-84.45 18.68-12.32 9.12-22.66 21.31-29.88 34.79-6.86 13.66-12.75 30.32-7.53 44.81l-78.11 12.25Z"/></g></symbol><symbol class="esquiggle esquiggle-1" viewBox="0 0 981.52 707.46" id="squiggle-4"><defs><mask id="eb" maskUnits="userSpaceOnUse"><path fill="none" stroke="#fff" stroke-miterlimit="10" stroke-width="43" d="M9.07 46.38s129.81-60.44 145.32 7.09-19.49 127.6-19.49 127.6l-31.01 98.36" class="emask emask-0" pathLength="100"/></mask><mask id="ec" maskUnits="userSpaceOnUse"><path fill="none" stroke="#fff" stroke-miterlimit="10" stroke-width="56" d="M79.96 293.67c57.23-64.75 113.02-118.64 151.52-142.74 13.96-8.74 60.57-37.17 126.71-53.17 22.2-5.37 55.67-7.04 69.11-2.66 24 7.83 38.85 28.36-19.49 54.05-51.39 22.63-88.61 47.95-130.25 76.2-29.97 20.33-100.49 69.48-118.74 146.2-7.72 32.45-1.43 50.28 1.77 57.6 11.7 26.78 39.04 38.15 63.8 48.73 16.05 6.87 188.78 24.48 224.07 25.47" class="emask emask-1" pathLength="100"/></mask><mask id="ed" maskUnits="userSpaceOnUse"><path fill="none" stroke="#fff" stroke-miterlimit="10" stroke-width="73" d="M427.71 495.76c59.86-7.28 103.63-27.25 128.93-41.2 39.04-21.52 63.88-45.13 74.43-55.82 28.28-28.65 50.95-50.72 55.82-86.39 1.01-7.4 7.86-57.54-25.25-89.05-6.15-5.85-25.41-22.23-71.77-23.92-64-2.34-157.32 24.1-216.65 103.67-70.53 94.6-51.41 183.25-47.54 200.33" class="emask emask-2" pathLength="100"/></mask><mask id="ee" maskUnits="userSpaceOnUse"><path fill="none" stroke="#fff" stroke-miterlimit="10" stroke-width="67" d="M319.2 483.22c0 35.44 59.71 198.71 332.04 190.44 179.04-5.44 289.82-146.39 303.63-164.53" class="emask emask-3" pathLength="100"/></mask><linearGradient id="ea" x1="15.807" x2="680.495" y1="-19.352" y2="626.42" gradientUnits="userSpaceOnUse"><stop stop-color="#CEFF00"/><stop offset="1" stop-color="#151515"/></linearGradient></defs><g class="esquiggle-1-group" fill="url(#ea)"><path d="M127.17 269.24c-3.26 1.19-6.8 1.83-10.58 1.57-11.13-.24-21.57-10.4-22.61-21.24-1.2-8.58 1.21-15.57 3.39-23.1 2.81-8.81 5.8-16.57 8.73-24.41 13.65-37.76 48.75-117.02 29.57-153.04-17.55-29.26-76.51-14.09-104.35-7.48a2.85 2.85 0 0 1-3.46-2.03c-.34-1.31.32-2.65 1.48-3.23h.02C77.18 11.77 152.54-9.36 169.37 61.9c7.31 35.39-.8 71.51-9.1 105.51-.89 3.41-1.81 6.8-2.75 10.19l-30.35 91.63Z" mask="url(#eb)"/><path d="M471.79 106.98c-6.92-44.9-67.99-43.73-101.8-38.86-80.53 12.54-153.61 54.45-212.48 109.52v-.03.03c-5.16 4.82-10.21 9.72-15.13 14.73-11.34 11-21.7 24.93-33 35.5l17.78 41.38c4.54-1.65 8.53-4.34 11.9-7.06 7.97-6.59 13.69-12.6 20.2-19.57 60.87-65.66 148.09-122.14 239.2-126.23l11.72.38c-4.26 2.73-8.84 5.17-13.26 7.49-89.95 45.46-246.29 153.53-256.02 261.72-4.39 63.73 52.94 95.79 106.8 109.46 15.29 3.92 30.92 7 46.75 9.23 21.08 2.98 42.54 4.46 64.09 4.47 26.2.01 52.53-2.16 78.5-6.49l-2.75-17.34c-26.56 5-53.77 7.34-80.87 6.69-21.19-.5-42.31-2.83-62.99-7.13-12.39-2.58-24.63-5.86-36.63-9.88-27.67-9.19-59.16-23.07-74.75-47.95-30.64-51.24 32.92-115.43 69.47-147.54 48.25-41.72 103.51-75.83 160.29-105.05 18.77-9.45 43.53-21.15 55.69-39.81 5.12-7.86 8.01-16.95 7.28-27.64Z" mask="url(#ec)"/><path d="M433.74 485.39c3.64-.69 7.82-1.53 11.44-2.31 76.59-17.14 154.42-55.44 198.46-122.06 15.36-23.99 27.53-53.23 23.6-80.96-5.62-42-48.86-60.14-87.33-58.73-58.69 1.39-115.25 37.8-157.96 76.09-53.51 48.58-85.44 127.45-67.32 199.2l-63.91-9.3c-1.83-11.74-2.97-26.21-2.79-38.37.09-94.66 61.86-176.85 138.98-225.67 30.35-19.34 62.23-36.22 97.54-44.94 64.83-17.45 150-1.76 176.76 67.84 23.22 64.73-20.09 131.07-67.96 171.47-55.57 44.53-125.05 73.1-196.75 85.07l-2.76-17.33Z" mask="url(#ed)"/><path d="M946.32 522.14c-21.22 25.67-44.89 49.54-70.77 71.08-52.49 43.76-113.31 77.41-180.05 94.42-84.69 21.57-177.83 15.52-258.32-19.18-69.35-30.14-124.37-92.35-142.71-165.08 21.08 2.98 42.07 4.42 63.62 4.43 22.41 62.67 80.94 109.31 144.35 128.05 59.57 18.94 122.96 23.95 184.78 13.23 62.77-10.69 123.17-36.98 176.75-71.59 27.34-17.64 53.46-37.58 78.32-59.28a2.82 2.82 0 0 1 3.98.27c.93 1.06.92 2.61.05 3.65Z" mask="url(#ee)"/></g></symbol></svg>